<?xml version="1.0" standalone="no"?><!DOCTYPE svg PUBLIC "-//W3C//DTD SVG 1.1//EN" "http://www.w3.org/Graphics/SVG/1.1/DTD/svg11.dtd"><svg t="1685686758285" class="icon" viewBox="0 0 1024 1024" version="1.1" xmlns="http://www.w3.org/2000/svg" p-id="6954" xmlns:xlink="http://www.w3.org/1999/xlink" width="200" height="200"><path d="M640.1 517.3c-1.4 75.4 277.5 101.1 277.6 261.7h0.8v102.6c0 13.9-44.2 45.1-87.2 45.1l-645.6-19.9c-13.9 0-25.2-11.3-25.2-25.2V779h0.8c0.7-173.1 276.3-189.2 277.6-261.7 0.4-3.7 0.5-43.5-13.1-65.2-14.4-23.1-63.2-96-63.2-164.2 0-60.8-21.8-104.2 19.1-138.9 29.6-25.1 113.9-50.7 157.8-50.7 104.7 0 176.9 84.9 176.9 189.6 0 68.2-55.9 144.6-63.2 164.2-7.9 21.2-12.7 60.1-13.1 65.2z m0 0" fill="#2280BF" p-id="6955"></path><path d="M582 537.1c-1.4 75.4 277.5 101.1 277.6 261.7h0.8v102.6c0 13.9-11.3 25.2-25.2 25.2H127.7c-13.9 0-25.2-11.3-25.2-25.2V798.8h0.8c0.7-173.1 276.3-189.2 277.6-261.7 0.4-3.7 0.5-43.5-13.1-65.2-14.4-23.1-63.2-96-63.2-164.2 0-104.7 72.3-189.6 176.9-189.6 104.7 0 176.9 84.9 176.9 189.6 0 68.2-55.9 144.6-63.2 164.2-7.9 21.3-12.8 60.2-13.2 65.2z m0 0" fill="#4EB3FF" p-id="6956"></path></svg>