<?xml version="1.0" standalone="no"?><!DOCTYPE svg PUBLIC "-//W3C//DTD SVG 1.1//EN" "http://www.w3.org/Graphics/SVG/1.1/DTD/svg11.dtd"><svg t="1684738055932" class="icon" viewBox="0 0 1024 1024" version="1.1" xmlns="http://www.w3.org/2000/svg" p-id="5521" xmlns:xlink="http://www.w3.org/1999/xlink" width="200" height="200"><path d="M924 439.8L686.2 202c-27.7-27.7-59.4-50.1-94.4-66.8C560 120 509.1 102 446.1 102h-2.2c-97.9 0.6-171.9 45.6-209.1 74.1-15-20.9-45.6-40.2-93.1-58.8-91.3-36.5-97-89.8-97.3-95.1v-0.3C44.3 9.8 34.4 0 22.3 0 10 0 0 10 0 22.3c0 3.5 1.4 86.9 125.5 136.5 61.9 24.2 73.4 42.8 75.2 46.7-0.1 0.6-0.1 1.1-0.1 1.7-32.2 34-97.8 118.1-98.6 236.8-0.4 63.3 17.5 114.7 32.6 146.7 16.7 35.4 39.4 67.6 67.4 95.5L439.8 924c64.4 64.5 150.4 100 242.1 100 91.7 0 177.7-35.5 242.1-100 64.5-64.4 100-150.4 100-242.1 0-91.7-35.5-177.7-100-242.1z m-31.4 452.8c-56 56-130.8 86.9-210.6 86.9-79.8 0-154.6-30.9-210.6-86.9L316.5 737.8c-9.9 4.6-19.9 9.1-30.1 13.4-2.8 1.2-5.7 1.7-8.6 1.7-8.7 0-17-5.1-20.5-13.7-4.7-11.3 0.6-24.4 12-29.1 4.6-1.9 9.1-3.9 13.6-5.9l-49.4-49.4c-24.3-24.3-44.1-52.3-58.6-83.1-10.8-22.8-28.7-69.6-28.3-127.4 0.9-125.7 88.2-209.3 98.2-218.4 20.1-18.4 94-78.6 199.5-79.3 55.4-0.5 100.5 15.5 128.5 28.8 30.4 14.5 58 34 82 58.1l35 35c1.6-4.3 3.1-8.6 4.6-13 4-11.6 16.6-17.9 28.2-13.9 11.6 4 17.9 16.6 13.9 28.2-3.8 11.2-7.9 22.2-12.2 33.2l168.2 168.2c56 56 86.9 130.8 86.9 210.6 0.1 79.9-30.8 154.7-86.8 210.8z" fill="#231815" p-id="5522"></path><path d="M349.5 304.3c-8.7-8.7-22.8-8.7-31.5 0s-8.7 22.8 0 31.5l94.4 94.4c4.3 4.3 10 6.5 15.7 6.5s11.4-2.2 15.7-6.5c8.7-8.7 8.7-22.8 0-31.5l-94.3-94.4z" fill="#231815" p-id="5523"></path><path d="M724.3 303.1c4.3-11 8.4-22 12.2-33.2 4-11.6-2.3-24.3-13.9-28.2-11.6-4-24.3 2.3-28.2 13.9-1.5 4.3-3.1 8.7-4.6 13-70.3 194.4-217.4 352-406.9 435.6-4.5 2-9 4-13.6 5.9-11.3 4.7-16.7 17.8-12 29.1 3.6 8.5 11.8 13.7 20.5 13.7 2.9 0 5.8-0.6 8.6-1.7 10.1-4.2 20.1-8.7 30.1-13.4 186.8-87.2 332.9-243 407.8-434.7z" fill="" p-id="5524"></path></svg>